HIERARCHY
ROOT Hips
{
	OFFSET -0.001795 -0.223333 0.028219
	CHANNELS 6 Xposition Yposition Zposition Zrotation Yrotation Xrotation 
	JOINT LeftUpLeg
	{
		OFFSET 0.069520 -0.091406 -0.006815
		CHANNELS 3 Zrotation Yrotation Xrotation
		JOINT LeftLeg
		{
			OFFSET 0.034277 -0.375199 -0.004496
			CHANNELS 3 Zrotation Yrotation Xrotation
			JOINT LeftFoot
			{
				OFFSET -0.013596 -0.397961 -0.043693
				CHANNELS 3 Zrotation Yrotation Xrotation
				JOINT LeftToe
				{
					OFFSET 0.026358 -0.055791 0.119288
					CHANNELS 3 Zrotation Yrotation Xrotation
					End Site
					{
						OFFSET 0.000000 0.000000 0.000000
					}
				}
			}
		}
	}
	JOINT RightUpLeg
	{
		OFFSET -0.067670 -0.090522 -0.004320
		CHANNELS 3 Zrotation Yrotation Xrotation
		JOINT RightLeg
		{
			OFFSET -0.038290 -0.382569 -0.008850
			CHANNELS 3 Zrotation Yrotation Xrotation
			JOINT RightFoot
			{
				OFFSET 0.015774 -0.398415 -0.042312
				CHANNELS 3 Zrotation Yrotation Xrotation
				JOINT RightToe
				{
					OFFSET -0.025372 -0.048144 0.123348
					CHANNELS 3 Zrotation Yrotation Xrotation
					End Site
					{
						OFFSET 0.000000 0.000000 0.000000
					}
				}
			}
		}
	}
	JOINT Spine
	{
		OFFSET -0.002533 0.108963 -0.026696
		CHANNELS 3 Zrotation Yrotation Xrotation
		JOINT Spine1
		{
			OFFSET 0.005487 0.135180 0.001092
			CHANNELS 3 Zrotation Yrotation Xrotation
			JOINT Spine2
			{
				OFFSET 0.001457 0.052922 0.025425
				CHANNELS 3 Zrotation Yrotation Xrotation
				JOINT Neck
				{
					OFFSET -0.002778 0.213870 -0.042857
					CHANNELS 3 Zrotation Yrotation Xrotation
					JOINT Head
					{
						OFFSET 0.005152 0.064970 0.051349
						CHANNELS 3 Zrotation Yrotation Xrotation
						End Site
						{
							OFFSET 0.000000 0.000000 0.000000
						}
					}
				}
				JOINT LeftShoulder
				{
					OFFSET 0.078845 0.121749 -0.034090
					CHANNELS 3 Zrotation Yrotation Xrotation
					JOINT LeftArm
					{
						OFFSET 0.090977 0.030469 -0.008868
						CHANNELS 3 Zrotation Yrotation Xrotation
						JOINT LeftForeArm
						{
							OFFSET 0.259612 -0.012772 -0.027456
							CHANNELS 3 Zrotation Yrotation Xrotation
							JOINT LeftHand
							{
								OFFSET 0.249234 0.008986 -0.001171
								CHANNELS 3 Zrotation Yrotation Xrotation
								End Site
								{
									OFFSET 0.000000 0.000000 0.000000
								}
							}
						}
					}
				}
				JOINT RightShoulder
				{
					OFFSET -0.081759 0.118833 -0.038615
					CHANNELS 3 Zrotation Yrotation Xrotation
					JOINT RightArm
					{
						OFFSET -0.096012 0.032551 -0.009143
						CHANNELS 3 Zrotation Yrotation Xrotation
						JOINT RightForeArm
						{
							OFFSET -0.253742 -0.013329 -0.021401
							CHANNELS 3 Zrotation Yrotation Xrotation
							JOINT RightHand
							{
								OFFSET -0.255298 0.007772 -0.005559
								CHANNELS 3 Zrotation Yrotation Xrotation
								End Site
								{
									OFFSET 0.000000 0.000000 0.000000
								}
							}
						}
					}
				}
			}
		}
	}
}
MOTION
Frames: 9
Frame Time: 0.050000
0.000000 0.941965 0.000000 1.112943 -2.955937 9.030470 4.192669 -0.407918 -5.268057 1.177571 -0.021691 -2.487131 2.155957 7.961648 12.926169 0.000000 0.000000 0.000000 -4.439377 0.576647 -5.731904 -3.715124 0.042277 -4.466338 -3.071877 -11.416794 13.316907 0.000000 0.000000 0.000000 5.332456 0.303581 -5.594657 -3.962838 1.744858 -4.901171 -5.114217 5.056695 5.356048 2.410462 -0.776270 -8.259026 0.000000 0.000000 0.000000 -15.040515 1.129665 -2.778556 -54.842067 -7.537414 -3.106939 -5.031503 -13.772480 1.026576 0.000000 0.000000 0.000000 13.550217 -10.015449 -5.430099 66.127462 2.070300 -4.897418 2.735578 20.381740 1.312800 0.000000 0.000000 0.000000 
-0.000049 0.941603 0.000447 1.171992 -2.683773 9.805927 4.220526 -0.408903 -5.101149 1.101300 0.068167 -4.324528 1.933285 7.719141 13.308182 0.000000 0.000000 0.000000 -4.298659 0.632863 -6.525062 -4.063408 0.067032 -4.405177 -3.258582 -11.728159 13.363547 0.000000 0.000000 0.000000 7.036035 0.390841 -6.389850 -4.988838 2.164553 -5.129360 -6.595887 5.003308 5.106130 0.398620 0.774493 -9.461778 0.000000 0.000000 0.000000 -15.398495 2.048470 -3.352511 -53.624714 -7.679043 -2.926522 -5.142111 -13.249462 0.990782 0.000000 0.000000 0.000000 13.200343 -11.730353 -6.182665 67.829552 0.627765 -5.718317 3.451636 21.202598 1.510438 0.000000 0.000000 0.000000 
-0.000165 0.941632 0.000537 1.813656 -2.567817 9.585174 3.636407 -0.453536 -5.732962 0.925753 0.019201 -2.893808 1.884049 7.621539 13.128837 0.000000 0.000000 0.000000 -5.102242 0.636597 -6.714625 -3.855019 0.114460 -3.593114 -3.444686 -11.964757 12.969309 0.000000 0.000000 0.000000 6.783727 0.361715 -6.132043 -5.378702 2.311943 -5.561997 -6.881624 4.182578 5.141861 0.014121 0.884942 -8.373117 0.000000 0.000000 0.000000 -15.036443 1.598689 -2.935487 -53.461279 -7.565349 -2.993403 -4.813576 -12.533718 0.917516 0.000000 0.000000 0.000000 14.155666 -10.856848 -5.999498 66.396337 0.279095 -5.956850 4.389294 21.265813 1.641621 0.000000 0.000000 0.000000 
-0.000377 0.941790 0.000574 2.150645 -2.192051 9.982656 3.768291 -0.482916 -6.191506 0.167646 0.088114 -3.011309 1.632997 7.314219 13.324813 0.000000 0.000000 0.000000 -5.323570 0.663600 -7.213272 -4.045464 0.148820 -3.325800 -3.687579 -12.362016 13.011635 0.000000 0.000000 0.000000 6.973371 0.385306 -6.448155 -5.786678 2.514301 -4.731902 -7.364919 3.466466 4.039791 -1.011780 1.495746 -7.601904 0.000000 0.000000 0.000000 -15.267511 2.263860 -3.263274 -53.347989 -8.273219 -2.549209 -4.006199 -11.968222 0.793927 0.000000 0.000000 0.000000 13.169469 -11.510083 -6.219459 67.242158 -0.412803 -6.282631 5.488792 22.221480 1.892428 0.000000 0.000000 0.000000 
-0.000650 0.942314 0.000550 2.492644 -1.888827 9.738091 3.239041 -0.487004 -6.055412 0.526405 0.054619 -2.908730 1.414027 7.048449 13.487223 0.000000 0.000000 0.000000 -5.483488 0.660617 -7.324791 -4.329127 0.232603 -2.526314 -3.883181 -12.660206 12.920032 0.000000 0.000000 0.000000 6.804796 0.368658 -6.298682 -5.613250 2.450515 -4.602123 -7.827593 3.033439 4.179244 -1.467628 1.866128 -8.461030 0.000000 0.000000 0.000000 -15.044699 1.903305 -3.015821 -53.359594 -8.568018 -2.440724 -4.300359 -11.778156 0.814753 0.000000 0.000000 0.000000 13.192935 -11.552634 -6.264979 67.017168 -0.335706 -6.250197 5.718574 22.252278 1.930181 0.000000 0.000000 0.000000 
-0.000970 0.942803 0.000585 2.723118 -1.738285 9.836917 3.124402 -0.491944 -6.065446 0.352761 0.078416 -3.150001 1.259825 6.890940 13.760538 0.000000 0.000000 0.000000 -5.605858 0.653554 -7.233150 -4.499346 0.223418 -2.822430 -3.940752 -12.779498 13.138858 0.000000 0.000000 0.000000 6.716479 0.371282 -6.377383 -5.742134 2.499753 -4.764626 -7.946881 2.832686 4.324374 -1.845761 2.119774 -8.468689 0.000000 0.000000 0.000000 -15.324736 2.225333 -3.196489 -53.166375 -8.783047 -2.342051 -3.990467 -11.909207 0.794847 0.000000 0.000000 0.000000 12.986809 -11.573735 -6.251842 67.258655 -0.523153 -6.393329 5.889905 22.477463 1.979566 0.000000 0.000000 0.000000 
-0.001280 0.943097 0.000625 2.822750 -1.548964 9.630831 2.940362 -0.480811 -5.838794 0.552622 0.064703 -3.208281 1.127574 6.729739 13.844638 0.000000 0.000000 0.000000 -5.552999 0.637814 -7.022348 -4.703958 0.249333 -2.713805 -4.023278 -12.911441 13.184470 0.000000 0.000000 0.000000 6.724749 0.354410 -6.189611 -5.618822 2.454279 -4.679262 -8.134560 2.461833 4.389312 -1.929138 2.192868 -8.953757 0.000000 0.000000 0.000000 -15.506384 2.191781 -3.164865 -53.076658 -8.429286 -2.499856 -4.256900 -12.313186 0.854310 0.000000 0.000000 0.000000 13.164682 -11.501250 -6.278303 67.228602 -0.719435 -6.544719 5.966356 23.264323 2.064248 0.000000 0.000000 0.000000 
-0.001554 0.943401 0.000671 2.883540 -1.325160 9.672459 2.899853 -0.499174 -6.090236 0.588462 0.050323 -2.911148 1.013076 6.590368 13.883977 0.000000 0.000000 0.000000 -5.588358 0.632372 -6.970594 -4.680567 0.243069 -2.790515 -4.119164 -13.076629 13.322305 0.000000 0.000000 0.000000 6.712061 0.355928 -6.240654 -5.528856 2.421172 -4.585370 -8.258446 2.488571 4.323187 -1.721458 2.060064 -8.917102 0.000000 0.000000 0.000000 -15.464810 1.993272 -3.098128 -53.005255 -8.335954 -2.527268 -4.405718 -12.801057 0.900596 0.000000 0.000000 0.000000 13.207691 -11.809968 -6.413641 67.393014 -0.906945 -6.636424 5.710342 23.719220 2.072308 0.000000 0.000000 0.000000 
-0.001844 0.943731 0.000693 2.981351 -1.176253 9.558725 2.864319 -0.494450 -6.007255 0.522957 0.054949 -2.886965 0.901580 6.461344 13.984871 0.000000 0.000000 0.000000 -5.624142 0.618618 -6.780037 -4.736942 0.244231 -2.845634 -4.176358 -13.173587 13.417951 0.000000 0.000000 0.000000 6.684516 0.335798 -6.032448 -5.473308 2.387320 -4.960458 -8.231051 2.532131 4.649929 -1.679505 2.075799 -9.406548 0.000000 0.000000 0.000000 -15.435966 1.892553 -3.056235 -53.012506 -8.283990 -2.580489 -4.894105 -12.893096 0.959760 0.000000 0.000000 0.000000 13.222925 -11.842833 -6.415059 67.354805 -1.042175 -6.732891 5.869903 24.273757 2.173654 0.000000 0.000000 0.000000 
